<svg width="24" height="24" viewBox="0 0 24 24" fill="currentColor" xmlns="http://www.w3.org/2000/svg">
<path d="M11.9999 2.00018C17.5228 2.00018 21.9999 6.47764 21.9999 12.0002C21.9999 17.5227 17.5228 22.0002 11.9999 22.0002C6.47769 22.0002 1.99991 17.5224 1.99991 12.0002C1.99991 6.47797 6.47769 2.00018 11.9999 2.00018ZM11.9999 3.50018C7.30612 3.50018 3.49991 7.3064 3.49991 12.0002C3.49991 16.694 7.30612 20.5002 11.9999 20.5002C16.6943 20.5002 20.4999 16.6943 20.4999 12.0002C20.4999 7.30604 16.6943 3.50018 11.9999 3.50018ZM12.005 15.0461C12.4192 15.0461 12.755 15.3819 12.755 15.7961C12.755 16.1758 12.4729 16.4896 12.1068 16.5392L11.995 16.5461C11.5808 16.5461 11.245 16.2103 11.245 15.7961C11.245 15.4164 11.5272 15.1026 11.8932 15.0529L12.005 15.0461ZM11.995 7.45428C12.3747 7.45428 12.6885 7.73644 12.7382 8.10251L12.745 8.20428V12.6233C12.745 13.0375 12.4092 13.3733 11.995 13.3733C11.6153 13.3733 11.3015 13.0911 11.2519 12.7251L11.245 12.6233V8.20428C11.245 7.79007 11.5808 7.45428 11.995 7.45428Z"/>
</svg>
