<svg width="24" height="24" viewBox="0 0 24 24" fill="currentColor" xmlns="http://www.w3.org/2000/svg">
<path d="M23.5219 17.9044H22.7939C22.6768 15.1979 21.5678 12.67 19.6402 10.7424C17.7012 8.80341 15.1549 7.69289 12.4303 7.58686V6.33469H14.0558C14.3198 6.33469 14.5339 6.12066 14.5339 5.85661C14.5339 4.45946 13.3972 3.32274 12 3.32274C10.6028 3.32274 9.46613 4.45946 9.46613 5.85661C9.46613 6.12066 9.6802 6.33469 9.9442 6.33469H11.4741V7.59033C8.7855 7.7183 6.27609 8.82605 4.3598 10.7423C2.43216 12.6699 1.32314 15.1978 1.20605 17.9043H0.478078C0.214078 17.9044 0 18.1184 0 18.3825V20.1992C0 20.4632 0.214078 20.6773 0.478078 20.6773H23.5219C23.7859 20.6773 24 20.4632 24 20.1992V18.3825C24 18.1185 23.7859 17.9044 23.5219 17.9044ZM10.4963 5.37854C10.6993 4.74155 11.2966 4.27894 12 4.27894C12.7034 4.27894 13.3007 4.74155 13.5037 5.37854H10.4963ZM12 8.53388C17.2701 8.53388 21.5867 12.6953 21.8372 17.9044H2.16281C2.41331 12.6953 6.72989 8.53388 12 8.53388ZM23.0438 19.7212H0.956156V18.8606H23.0438L23.0438 19.7212Z" />
<path d="M9.49022 10.2833C9.40031 10.0351 9.12638 9.9067 8.8778 9.9968C8.3895 10.1738 7.91339 10.3958 7.46274 10.6565C7.23417 10.7887 7.15603 11.0812 7.28827 11.3097C7.37691 11.4629 7.53746 11.5485 7.7026 11.5485C7.78378 11.5485 7.86614 11.5277 7.94147 11.4842C8.34352 11.2516 8.76816 11.0536 9.20372 10.8957C9.45192 10.8057 9.58022 10.5315 9.49022 10.2833Z" />
<path d="M6.42136 11.9627C6.23817 11.7725 5.93559 11.7667 5.74528 11.9497C4.46016 13.1859 3.58481 14.7559 3.2138 16.49C3.15853 16.7483 3.32306 17.0023 3.5813 17.0575C3.615 17.0648 3.64861 17.0682 3.6818 17.0682C3.90244 17.0682 4.10086 16.9145 4.14886 16.69C4.47984 15.1431 5.26111 13.7422 6.40823 12.6387C6.5985 12.4556 6.60441 12.153 6.42136 11.9627Z" />
</svg>
