<svg width="24" height="24" viewBox="0 0 24 24" fill="currentColor" xmlns="http://www.w3.org/2000/svg">
<path fill-rule="evenodd" clip-rule="evenodd" d="M1.24994 9.00002C1.24994 6.37666 3.37659 4.25002 5.99994 4.25002H17.9999C20.6233 4.25002 22.7499 6.37666 22.7499 9.00002V15C22.7499 17.6234 20.6233 19.75 17.9999 19.75H5.99994C3.37659 19.75 1.24994 17.6234 1.24994 15V9.00002ZM2.8369 8.25002H21.163C20.8244 6.81667 19.5367 5.75002 17.9999 5.75002H5.99994C4.46315 5.75002 3.17549 6.81667 2.8369 8.25002ZM21.2499 9.75002H2.74994V15C2.74994 16.7949 4.20501 18.25 5.99994 18.25H17.9999C19.7949 18.25 21.2499 16.7949 21.2499 15V9.75002ZM13.2499 15C13.2499 14.5858 13.5857 14.25 13.9999 14.25H17.9999C18.4142 14.25 18.7499 14.5858 18.7499 15C18.7499 15.4142 18.4142 15.75 17.9999 15.75H13.9999C13.5857 15.75 13.2499 15.4142 13.2499 15Z" />
</svg>
