<svg width="16" height="16" viewBox="0 0 16 16" fill="none" xmlns="http://www.w3.org/2000/svg">
<path fill-rule="evenodd" clip-rule="evenodd" d="M10.8636 6.40368L7.81825 10.4037C7.69292 10.5683 7.49892 10.6657 7.29225 10.667H7.28759C7.08292 10.667 6.88959 10.5723 6.76292 10.411L5.14159 8.33968C4.91492 8.05035 4.96559 7.63101 5.25559 7.40435C5.54492 7.17701 5.96492 7.22768 6.19159 7.51835L7.28025 8.90901L9.80292 5.59635C10.0256 5.30368 10.4436 5.24635 10.7376 5.46968C11.0303 5.69301 11.0869 6.11101 10.8636 6.40368M8.00025 1.33368C4.31825 1.33368 1.33359 4.31835 1.33359 8.00035C1.33359 11.6817 4.31825 14.667 8.00025 14.667C11.6823 14.667 14.6669 11.6817 14.6669 8.00035C14.6669 4.31835 11.6823 1.33368 8.00025 1.33368" fill="#EA7C69"/>
<mask id="mask0_194_2337" style="mask-type:luminance" maskUnits="userSpaceOnUse" x="1" y="1" width="14" height="14">
<path fill-rule="evenodd" clip-rule="evenodd" d="M10.8636 6.40368L7.81825 10.4037C7.69292 10.5683 7.49892 10.6657 7.29225 10.667H7.28759C7.08292 10.667 6.88959 10.5723 6.76292 10.411L5.14159 8.33968C4.91492 8.05035 4.96559 7.63101 5.25559 7.40435C5.54492 7.17701 5.96492 7.22768 6.19159 7.51835L7.28025 8.90901L9.80292 5.59635C10.0256 5.30368 10.4436 5.24635 10.7376 5.46968C11.0303 5.69301 11.0869 6.11101 10.8636 6.40368M8.00025 1.33368C4.31825 1.33368 1.33359 4.31835 1.33359 8.00035C1.33359 11.6817 4.31825 14.667 8.00025 14.667C11.6823 14.667 14.6669 11.6817 14.6669 8.00035C14.6669 4.31835 11.6823 1.33368 8.00025 1.33368" fill="white"/>
</mask>
<g mask="url(#mask0_194_2337)">
<rect width="16" height="16" fill="currentColor"/>
</g>
</svg>
