<svg width="24" height="24" viewBox="0 0 24 24" fill="currentColor" xmlns="http://www.w3.org/2000/svg">
<path d="M9.59131 14.4563L9.9111 14.4577C14.5555 14.4981 17.1833 15.4362 17.1833 17.9983C17.1833 20.5062 14.6648 21.4737 10.2235 21.5547L9.59131 21.5603C4.74698 21.5603 2.00031 20.6394 2.00031 18.0183C2.00031 15.3938 4.7579 14.4563 9.59131 14.4563ZM9.59131 15.9563C5.57396 15.9563 3.50031 16.6613 3.50031 18.0183C3.50031 19.3668 5.56899 20.0603 9.59131 20.0603C13.609 20.0603 15.6833 19.3553 15.6833 17.9983C15.6833 16.6506 13.6127 15.9563 9.59131 15.9563ZM17.587 13.7481C18.1676 13.7876 18.7448 13.8709 19.2994 13.9938C20.4875 14.2302 21.3708 14.6713 21.7755 15.5205C22.0743 16.1492 22.0743 16.8807 21.7755 17.5093C21.3731 18.3563 20.499 18.7943 19.3042 19.04C18.8985 19.1235 18.5019 18.8622 18.4185 18.4565C18.335 18.0508 18.5963 17.6542 19.002 17.5708C19.7709 17.4127 20.2826 17.1563 20.4207 16.8655C20.5259 16.6442 20.5259 16.3857 20.4211 16.1651C20.282 15.8733 19.7676 15.6163 18.991 15.4617C18.4936 15.3516 17.9908 15.2791 17.4852 15.2447C17.072 15.2166 16.7597 14.8588 16.7878 14.4455C16.8159 14.0323 17.1737 13.72 17.587 13.7481ZM9.59131 2.49982C12.4393 2.49982 14.7263 4.78642 14.7263 7.63382C14.7263 10.482 12.4395 12.7688 9.59131 12.7688C6.74324 12.7688 4.45731 10.4822 4.45731 7.63382C4.45731 4.78628 6.74342 2.49982 9.59131 2.49982ZM16.02 3.56942C18.2549 3.56942 20.067 5.38189 20.067 7.61642C20.067 9.85163 18.2552 11.6634 16.02 11.6634C15.6058 11.6634 15.27 11.3276 15.27 10.9134C15.27 10.4992 15.6058 10.1634 16.02 10.1634C17.4268 10.1634 18.567 9.0232 18.567 7.61642C18.567 6.21025 17.4264 5.06942 16.02 5.06942C15.6058 5.06942 15.27 4.73363 15.27 4.31942C15.27 3.9052 15.6058 3.56942 16.02 3.56942ZM9.59131 3.99982C7.5719 3.99982 5.95731 5.61466 5.95731 7.63382C5.95731 9.65385 7.57177 11.2688 9.59131 11.2688C11.6111 11.2688 13.2263 9.6536 13.2263 7.63382C13.2263 5.6149 11.611 3.99982 9.59131 3.99982Z" />
</svg>
