<svg width="24" height="24" viewBox="0 0 24 24" fill="currentColor" xmlns="http://www.w3.org/2000/svg">
<path d="M14.4736 2.00018C14.5167 2.00018 14.5589 2.00381 14.6 2.01078L14.7363 2.01188C14.9405 2.01188 15.1359 2.09514 15.2773 2.24243L20.3433 7.51843C20.4774 7.65811 20.5523 7.84424 20.5523 8.03788V17.2279C20.5523 19.7229 18.528 21.8649 16.0723 21.8649H8.08431C5.50116 21.8649 3.50031 19.8254 3.50031 17.2279V6.49088C3.50031 4.02971 5.59702 2.01188 8.08431 2.01188L14.3475 2.01074C14.3885 2.0038 14.4306 2.00018 14.4736 2.00018ZM13.7233 3.51018L8.08431 3.51188C6.41285 3.51188 5.00031 4.87128 5.00031 6.49088V17.2279C5.00031 19.0033 6.33607 20.3649 8.08431 20.3649H16.0723C17.68 20.3649 19.0523 18.9128 19.0523 17.2279L19.0513 8.98318L18.1755 8.98625C17.842 8.98585 17.4627 8.98514 17.041 8.98418C15.2707 8.98044 13.8264 7.59366 13.7289 5.84759L13.7236 5.65918L13.7233 3.51018ZM11.6406 8.69078C12.0203 8.69078 12.3341 8.97294 12.3838 9.33901L12.3906 9.44078L12.3903 14.1952L13.9478 12.634C14.24 12.3405 14.7149 12.3395 15.0084 12.6317C15.2752 12.8974 15.3003 13.3141 15.0831 13.6081L15.0107 13.6924L12.1717 16.5434L12.1279 16.5839C12.1175 16.5928 12.1069 16.6014 12.0961 16.6097L12.1717 16.5434C12.1349 16.5803 12.0952 16.6127 12.0533 16.6403C12.0388 16.6497 12.0233 16.6592 12.0075 16.6681C11.994 16.6759 11.9808 16.6828 11.9674 16.6893C11.951 16.697 11.9342 16.7044 11.917 16.7112C11.9001 16.7182 11.8823 16.7245 11.8645 16.73C11.8508 16.7341 11.8371 16.7379 11.8232 16.7414C11.8032 16.7466 11.7831 16.7508 11.7628 16.7541C11.7509 16.7558 11.7388 16.7575 11.7267 16.7589C11.7032 16.7619 11.6794 16.7635 11.6556 16.764C11.6508 16.7637 11.6457 16.7638 11.6406 16.7638L11.6257 16.764C11.6012 16.7636 11.5768 16.7619 11.5525 16.7591L11.6406 16.7638C11.5998 16.7638 11.5597 16.7605 11.5206 16.7542C11.4986 16.7511 11.4769 16.7466 11.4554 16.7412C11.4444 16.7379 11.433 16.7348 11.4217 16.7313C11.3999 16.7252 11.3785 16.7176 11.3575 16.7091C11.3462 16.7039 11.3351 16.6991 11.3242 16.6939C11.3066 16.6864 11.2893 16.6775 11.2722 16.6679C11.2572 16.6587 11.2421 16.6495 11.2273 16.6397C11.2154 16.6326 11.2041 16.6246 11.1929 16.6163L11.1852 16.6097C11.1743 16.6014 11.1637 16.5928 11.1533 16.5839L11.1087 16.5433L8.27067 13.6923C7.97845 13.3987 7.97953 12.9239 8.2731 12.6316C8.53997 12.366 8.95669 12.3427 9.2498 12.5613L9.33375 12.6341L10.8903 14.1982L10.8906 9.44078C10.8906 9.02657 11.2264 8.69078 11.6406 8.69078ZM15.2233 4.35118L15.2236 5.65918C15.2236 6.66575 16.038 7.48206 17.0443 7.48419L18.2313 7.48418L15.2233 4.35118Z" />
</svg>
