<svg width="24" height="24" viewBox="0 0 24 24" fill="currentColor" xmlns="http://www.w3.org/2000/svg">
<path d="M9.73031 2.78831C11.0003 1.77931 12.7803 1.73931 14.0893 2.66831L14.2503 2.78831L20.3393 7.65931C21.0093 8.17831 21.4203 8.94931 21.4903 9.78831L21.5003 9.98931V18.0983C21.5003 20.1883 19.8493 21.8883 17.7803 21.9983H15.7903C14.8393 21.9793 14.0703 21.2393 14.0003 20.3093L13.9903 20.1683V17.3093C13.9903 16.9983 13.7593 16.7393 13.4503 16.6883L13.3603 16.6783H10.6893C10.3703 16.6883 10.1103 16.9183 10.0703 17.2183L10.0603 17.3093V20.1593C10.0603 20.2183 10.0493 20.2883 10.0403 20.3383L10.0303 20.3593L10.0193 20.4283C9.90031 21.2793 9.2003 21.9283 8.33031 21.9893L8.2003 21.9983H6.41031C4.32031 21.9983 2.61031 20.3593 2.50031 18.2983V9.98931C2.50931 9.13831 2.88031 8.34831 3.50031 7.79831L9.73031 2.78831ZM13.3803 3.87831C12.6203 3.26831 11.5403 3.23931 10.7403 3.76831L10.5893 3.87831L4.50931 8.77931C4.16031 9.03831 3.95031 9.42831 3.90031 9.83831L3.88931 9.99831V18.0983C3.88931 19.4283 4.92931 20.5183 6.25031 20.5983H8.2003C8.4203 20.5983 8.61031 20.4493 8.63931 20.2393L8.66031 20.0593L8.67031 20.0083V17.3093C8.67031 16.2393 9.4903 15.3693 10.5403 15.2883H13.3603C14.4293 15.2883 15.2993 16.1093 15.3803 17.1593V20.1683C15.3803 20.3783 15.5303 20.5593 15.7303 20.5983H17.5893C18.9293 20.5983 20.0193 19.5693 20.0993 18.2583L20.1103 18.0983V9.99831C20.0993 9.56931 19.9203 9.16831 19.6103 8.86931L19.4803 8.75831L13.3803 3.87831Z" />
</svg>
