<svg width="24" height="24" viewBox="0 0 24 24" stroke="currentColor" fill="none" xmlns="http://www.w3.org/2000/svg">
<path d="M17.2854 10.6789C19.475 10.6789 21.25 8.90387 21.25 6.71431C21.25 4.52475 19.475 2.74976 17.2854 2.74976C15.0959 2.74976 13.3209 4.52475 13.3209 6.71431C13.3209 8.90387 15.0959 10.6789 17.2854 10.6789Z" stroke-width="1.3" stroke-linecap="round" stroke-linejoin="round"/>
<path d="M2.7504 10.6786V4.7329C2.7504 3.74045 3.6756 2.7509 4.7326 2.7509C5.7919 2.7509 6.7148 3.74005 6.7148 4.7329V10.6786" stroke-width="1.3" stroke-linecap="round" stroke-linejoin="round"/>
<path d="M6.7144 4.73241C6.7144 3.73996 7.6396 2.75041 8.6966 2.75041C9.7559 2.75041 10.6788 3.73956 10.6788 4.73241V10.6782" stroke-width="1.3" stroke-linecap="round" stroke-linejoin="round"/>
<path d="M2.75 21.25V15.3038C2.75 14.3113 3.6752 13.3217 4.7322 13.3217C5.7915 13.3217 6.7144 14.3109 6.7144 15.3038V21.25" stroke-width="1.3" stroke-linecap="round" stroke-linejoin="round"/>
<path d="M6.7144 15.3038C6.7144 14.3113 7.6396 13.3217 8.6966 13.3217C9.7559 13.3217 10.6788 14.3109 10.6788 15.3038V21.25" stroke-width="1.3" stroke-linecap="round" stroke-linejoin="round"/>
<path d="M17.2854 21.2503C19.475 21.2503 21.25 19.4753 21.25 17.2857C21.25 15.0961 19.475 13.3212 17.2854 13.3212C15.0959 13.3212 13.3209 15.0961 13.3209 17.2857C13.3209 19.4753 15.0959 21.2503 17.2854 21.2503Z" stroke-width="1.3" stroke-linecap="round" stroke-linejoin="round"/>
</svg>
